<svg xmlns="http://www.w3.org/2000/svg" viewBox="0 0 247.2 247.2"><defs><style>.cls-1,.cls-6{fill:#186534;}.cls-2{fill:none;stroke-width:3px;}.cls-2,.cls-6{stroke:#fff;stroke-miterlimit:10;}.cls-3,.cls-7{fill:#fff;}.cls-4{fill:#ed1c24;}.cls-5{fill:#414042;}.cls-6{stroke-width:2px;}.cls-7{font-size:31px;font-family:DeliciousHandrawn-Regular, Delicious Handrawn;}</style></defs><title>gnsq logo</title><g id="bg"><rect class="cls-1" width="247.2" height="247.2" rx="5"/></g><g id="circle"><circle class="cls-2" cx="123.6" cy="123.6" r="82.67"/></g><g id="top_text_goon_" data-name="top text (goon)"><path class="cls-3" d="M108,66.58a20.66,20.66,0,0,1-4.32,1.87c-2.25.66-3.94.7-5.17-.06s-1.83-2.19-1.82-4.22A10.09,10.09,0,0,1,104,54.6a7.65,7.65,0,0,1,3.56-.29L107,56.42a6.06,6.06,0,0,0-3,.23,6.54,6.54,0,0,0-4.8,6.41c0,3.08,1.83,4.17,4.59,3.36a6.53,6.53,0,0,0,1.85-.78V62.28c-.79.2-1.57.42-2.36.66V61c1.57-.47,3.15-.88,4.74-1.24Z"/><path class="cls-3" d="M122.63,58.65c0,4.52-2.8,7.06-6.57,7.45s-6.29-2-6.29-5.92c0-4.13,2.62-7.64,6.49-8S122.63,54.81,122.63,58.65Zm-10.24,1c0,2.75,1.4,4.69,3.8,4.45S120,61.63,120,58.81c0-2.54-1.29-4.92-3.79-4.68S112.39,56.9,112.39,59.67Z"/><path class="cls-3" d="M136.91,60c0,4.53-2.74,6.49-6.51,6.09a6.86,6.86,0,0,1-6.34-7.24c0-4.13,2.68-7.08,6.54-6.66S136.91,56.2,136.91,60Zm-10.19-1.11c0,2.76,1.41,5,3.8,5.24s3.78-1.69,3.78-4.52c0-2.54-1.28-5.18-3.77-5.46S126.71,56.17,126.72,58.93Z"/><path class="cls-3" d="M139,67.39V53.9c.93.22,1.87.47,2.8.73,1.15,2.25,2.29,4.54,3.43,6.85a51.79,51.79,0,0,1,2.23,5.32h0c-.17-1.85-.22-3.6-.22-5.66V56.43c.74.28,1.47.57,2.2.87V70.78c-.81-.34-1.64-.66-2.46-1q-1.71-3.59-3.44-7.1c-.85-1.74-1.73-3.64-2.39-5.35h-.07c.1,1.78.13,3.57.13,5.78V68C140.54,67.76,139.79,67.57,139,67.39Z"/></g><g id="bottom_text_squad_" data-name="bottom text (squad)"><path class="cls-3" d="M93,188a7.77,7.77,0,0,0,3.23,1.53c1.56.3,2.43-.29,2.43-1.39s-.68-1.73-2.37-2.67c-2.21-1.23-3.62-2.75-3.62-4.68,0-2.21,1.83-3.45,4.73-2.9a8.64,8.64,0,0,1,3.22,1.23c-.2.63-.39,1.26-.59,1.89a7.09,7.09,0,0,0-2.68-1.12c-1.55-.29-2.21.4-2.21,1.2,0,1,.77,1.68,2.56,2.7,2.33,1.32,3.45,2.66,3.45,4.6,0,2.16-1.63,3.82-5.08,3.15a8.84,8.84,0,0,1-3.61-1.62Z"/><path class="cls-3" d="M114.69,195.9a42.87,42.87,0,0,1-5.28-2.16,3.36,3.36,0,0,0-.88-.29c-3.12-.49-5.91-3.21-5.91-7.58,0-4.18,2.58-6.68,6.45-6.29s6.25,3.48,6.25,7.31c0,3.24-1.51,5.34-3.5,6v.08c1.17.42,2.48.79,3.58,1.06C115.16,194.64,114.92,195.27,114.69,195.9Zm-2-9.08c0-2.57-1.27-5-3.7-5.27s-3.78,1.9-3.78,4.6,1.38,5.13,3.73,5.37S112.71,189.65,112.7,186.82Z"/><path class="cls-3" d="M119.9,180.48v7.87c0,2.63,1.1,3.89,2.78,3.9s2.86-1.23,2.86-3.88v-7.86l2.48-.06v7.71c0,4.14-2.15,6.08-5.43,6.07s-5.17-1.88-5.17-6.11V180.4C118.25,180.44,119.08,180.46,119.9,180.48Z"/><path class="cls-3" d="M132.91,189.88l-1.16,3.89c-.85,0-1.7.09-2.56.12q2.17-6.82,4.35-13.72c1.05-.08,2.1-.16,3.15-.26q2.19,6.53,4.39,13l-2.65.31c-.41-1.23-.82-2.46-1.22-3.69C135.77,189.67,134.34,189.79,132.91,189.88Zm3.89-2.17-1.07-3.23c-.26-.81-.48-1.71-.69-2.48h0c-.2.81-.4,1.75-.64,2.58l-1.05,3.4C134.47,187.91,135.64,187.82,136.8,187.71Z"/><path class="cls-3" d="M142.94,179.36a34.54,34.54,0,0,1,3.92-.89c2.52-.42,4.23-.24,5.46.54s2.09,2.22,2.09,4.51a8.59,8.59,0,0,1-2.08,5.81,10.16,10.16,0,0,1-6.06,3,23.2,23.2,0,0,1-3.33.33Zm2.46,11.06a8.73,8.73,0,0,0,1.37-.15c3.18-.52,5.06-2.71,5.07-6.11,0-3-1.69-4.33-4.77-3.8a8.92,8.92,0,0,0-1.67.41Z"/></g><g id="inner_white_circle" data-name="inner white circle"><circle class="cls-3" cx="123.6" cy="123.6" r="54.56"/></g><g id="eye_background" data-name="eye background"><ellipse class="cls-4" cx="117" cy="103.68" rx="7.5" ry="7.04"/><ellipse class="cls-4" cx="135.25" cy="103.68" rx="7.5" ry="7.04"/></g><g id="crazy_graphic" data-name="crazy graphic"><path class="cls-5" d="M84.26,107.56a4.19,4.19,0,0,1,3.19-2.92,13,13,0,0,1,0-2.43,3.69,3.69,0,0,1,3.61-2.94,3.78,3.78,0,0,1,3.56,2.51c.29.8.44,1.65.71,2.45a1.4,1.4,0,0,0,.5.74c2.31,1.34,4.63,2.64,7,4a1.33,1.33,0,0,0,.24.08,115.41,115.41,0,0,1-.13-14.64c.26-6,3.32-10.63,8.17-14.07,5.19-3.67,11.06-4.54,17.23-4a21.75,21.75,0,0,1,14.13,6.52,17.38,17.38,0,0,1,5.21,12.11c.08,3.87,0,7.74,0,11.61a21.37,21.37,0,0,1-.36,2.64,5.29,5.29,0,0,0,.54-.25c2.21-1.28,4.44-2.54,6.64-3.85a1.84,1.84,0,0,0,.69-.88c.27-.77.41-1.6.68-2.37a3.75,3.75,0,0,1,4.64-2.38,3.79,3.79,0,0,1,2.6,4.38c0,.23-.07.47-.11.75l.74.27a3.77,3.77,0,0,1-2.06,7.24,1.28,1.28,0,0,1-.39-.07c-1.78-.88-3.26-.3-4.86.67-4.56,2.76-9.22,5.37-13.84,8a1.12,1.12,0,0,0-.68,1.1c-.05,2.6-1.54,4.47-3.26,6.2-.32.32-.67.61-1.07,1a5.8,5.8,0,0,0,.52.37q10.07,5.82,20.16,11.61a2.14,2.14,0,0,0,1.26.14,19.65,19.65,0,0,1,3.59-.51,3.52,3.52,0,0,1,3.15,3.31,3.75,3.75,0,0,1-2.53,3.92l-.64.24a12.55,12.55,0,0,1,0,2.38,3.65,3.65,0,0,1-3.45,2.93,3.78,3.78,0,0,1-3.7-2.41c-.29-.8-.42-1.66-.72-2.45a1.9,1.9,0,0,0-.73-.94q-11.89-6.9-23.83-13.73a1.6,1.6,0,0,0-1.23-.1,10.93,10.93,0,0,1-8.33,0,1.51,1.51,0,0,0-1.16.1Q108,140.66,96.08,147.56a1.83,1.83,0,0,0-.74.94c-.3.82-.43,1.7-.75,2.52a3.76,3.76,0,0,1-7.17-2.18c0-.23.08-.47.13-.79a4.28,4.28,0,0,1-3.29-3v-1.6c.6-1.64,1.64-2.87,3.48-2.94a9.09,9.09,0,0,1,2.8.51,2.56,2.56,0,0,0,2.17-.27q9.71-5.66,19.45-11.24l.8-.49c-.41-.37-.77-.68-1.1-1-1.66-1.68-3.09-3.49-3.22-6a1.18,1.18,0,0,0-.68-1.11c-4.94-2.9-9.9-5.77-14.79-8.74a3.42,3.42,0,0,0-3.12-.41,6.5,6.5,0,0,1-2.65.33,3.8,3.8,0,0,1-3.14-2.93Zm31.39,10.16c0,.67,0,1.23,0,1.79a4,4,0,0,0,2.12,3.68,7.2,7.2,0,0,0,3.73,1c2.53,0,5.07,0,7.6,0a10,10,0,0,0,3-.53,3.61,3.61,0,0,0,2.66-3.18c.07-.74.13-1.48.13-2.22a.67.67,0,0,1,.53-.74c1.07-.33,2.13-.69,3.18-1.06s1.34-1,1.06-1.74-.95-1-1.88-.66c-1.47.48-2.92,1-4.39,1.46a1.37,1.37,0,0,0-1.05,1.42c0,.8,0,1.6,0,2.4a5.91,5.91,0,0,1-.21,1.05c-1.27-.6-1.65-.43-2.31.64-.22.35-.74.51-1.18.79-.31-1.39-.67-1.8-1.42-1.79s-1.07.38-1.38,1.6h-1.12c-.12-.78-.29-1.54-1.25-1.59-1.11-.06-1.29.8-1.5,1.79-.45-.23-.93-.33-1.13-.62-.88-1.33-.91-1.37-2.46-.91,0-.29-.11-.57-.12-.85,0-.77,0-1.54,0-2.32,0-1-.22-1.34-1.23-1.69-1.36-.46-2.72-.93-4.08-1.38-1-.32-1.67,0-1.92.71s.1,1.37,1.08,1.72Zm24.17-13.38c0-2.27-1.24-4.16-3.39-4.62a18.55,18.55,0,0,0-4.83-.22,4,4,0,0,0-2.06.94c-1.34,1-1.42,2.62-.3,4.37a10.72,10.72,0,0,0,6.18,4.28,3,3,0,0,0,3.84-2A20.17,20.17,0,0,0,139.82,104.34Zm-28.41,0c.08.69.13,1.38.26,2.06a3.29,3.29,0,0,0,4.66,2.55,18.36,18.36,0,0,0,3.06-1.56,7.09,7.09,0,0,0,3.2-4,2.51,2.51,0,0,0-.88-2.8,3.79,3.79,0,0,0-1.81-.93,21.91,21.91,0,0,0-4.36,0A4.48,4.48,0,0,0,111.41,104.3Zm13.89,11.79v0c.53,0,1.07,0,1.59,0a1.53,1.53,0,0,0,1.64-1.6,7,7,0,0,0-.06-1.51,12.27,12.27,0,0,0-1.62-5.21c-.83-1.32-2.16-1.4-3-.14a12.06,12.06,0,0,0-1.78,6.93c0,.94.57,1.43,1.53,1.52C124.17,116.14,124.74,116.09,125.3,116.09Z"/></g><g id="title_text" data-name="title text"><rect class="cls-6" x="31.77" y="135.27" width="190.33" height="32"/><text class="cls-7" transform="translate(94.72 164.06)">GNSQ</text></g></svg>